<?xml version="1.0" encoding="utf-8"?>
<!-- Generator: Adobe Illustrator 23.1.1, SVG Export Plug-In . SVG Version: 6.00 Build 0)  -->
<svg version="1.1" id="map_x5F_base_x5F_sec_xA0_画像_1_"
	 xmlns="http://www.w3.org/2000/svg" xmlns:xlink="http://www.w3.org/1999/xlink" x="0px" y="0px" viewBox="0 0 117.372 36.442"
	 style="enable-background:new 0 0 117.372 36.442;" xml:space="preserve">
<style type="text/css">
	.st0{fill:none;stroke:#FFFFFF;stroke-miterlimit:10;}
	.st1{fill:#FFFFFF;}
</style>
<image style="overflow:visible;" width="819" height="579" id="map_x5F_base_x5F_sec_xA0_画像" xlink:href="880F4C2F78E09BF3.png"  transform="matrix(0.3086 0 0 0.2468 -149.4548 -134.0114)">
</image>
<g>
	<polygon points="116.872,31.69 112.62,35.942 4.752,35.942 0.5,31.69 0.5,4.752 4.752,0.5 112.62,0.5 116.872,4.752 	"/>
	<polygon class="st0" points="116.872,31.69 112.62,35.942 4.752,35.942 0.5,31.69 0.5,4.752 4.752,0.5 112.62,0.5 116.872,4.752 	
		"/>
</g>
<g>
	<path class="st1" d="M108.89,8.882c0-0.096,0.072-0.18,0.108-0.288c0.072-0.168,0.096-0.336,0.192-0.563
		c0.096-0.216,0.108-0.624,0.3-0.911c0.276-0.408,0.563-0.504,0.587-0.504c-0.036-0.013-0.228-0.061-0.312-0.072
		c-0.108-0.036-0.444-0.18-0.576-0.275c-0.132-0.097-0.144-0.108-0.204-0.252c-0.072-0.145-0.216-0.168-0.312-0.312
		c-0.108-0.155-0.096-0.252-0.18-0.479c-0.06-0.132-0.108-0.324-0.108-0.527c0-0.132,0.024-0.276,0.072-0.42
		c0.108-0.324,0.228-0.456,0.564-0.456s0.563,0.528,0.54,0.516c-0.024-0.023-0.204-0.071-0.324-0.071
		c-0.156,0.023-0.324,0.275-0.336,0.443c0,0.191,0.144,0.3,0.264,0.384c0.036,0.024,0.096,0.036,0.144,0.036
		c0.132,0,0.276-0.061,0.384-0.084c0.156-0.036,0.3-0.408,0.444-0.563c0.156-0.156,0.348-0.432,0.696-0.456
		c0.252,0,0.755,0.156,0.839,0.156c0-0.108-0.419-0.444-0.852-0.648c-0.096-0.023-0.335-0.119-0.552-0.119
		c-0.204,0-0.456-0.145-0.647-0.145c-0.252,0.024-0.731,0.048-0.888,0.048c-0.156,0-0.54,0.013-0.971,0.013
		c-0.408,0-0.516,0.048-0.756,0.048h-0.072c-0.192-0.013-0.3-0.024-0.408-0.024c-0.048,0-0.108,0-0.18,0.012
		c-0.144,0.024-0.288,0.036-0.396,0.036c-0.06,0-0.108,0-0.132-0.012c-0.084-0.024-0.264-0.024-0.408-0.024
		c-0.132,0-0.744,0.061-0.816,0.061c-0.06,0-0.479-0.024-0.551-0.024c-0.048,0-0.192-0.048-0.444-0.048
		c-0.096,0-0.204,0.012-0.336,0.024v-0.6c0.048,0,0.144,0.012,0.228,0.012c0.12,0,0.264-0.012,0.348-0.024
		c0.024,0,0.048-0.012,0.072-0.012c0.108,0,0.216,0.036,0.408,0.036c0.24,0,0.408,0,0.504-0.012h1.403
		c0.228,0,0.492,0.023,0.636,0.023c0.144,0,0.36,0.024,0.432,0.036c0.096,0,0.24-0.036,0.336-0.036c0.024,0,0.048,0.013,0.06,0.013
		c0.036,0.012,0.072,0.012,0.12,0.012c0.072,0,0.168-0.012,0.276-0.024c0.168-0.023,0.288-0.023,0.839-0.036h0.432
		c0.3,0,0.479,0,0.563,0.013c0.12,0.012,0.888,0.132,1.067,0.275c0.18,0.145,0.624,0.3,0.756,0.444
		c0.132,0.144,0.3,0.348,0.492,0.552c0.192,0.203,0.396,0.6,0.432,0.707c0,0.132-0.06,0.252-0.18,0.288
		c-0.156,0-0.288-0.168-0.492-0.252c-0.084-0.036-0.167-0.048-0.24-0.048c-0.12,0-0.228,0.036-0.312,0.072
		c-0.144,0.048-0.3,0.167-0.528,0.371c-0.228,0.204-0.48,0.372-0.66,0.432c-0.12,0.036-0.216,0.061-0.348,0.061
		c-0.06,0-0.132-0.013-0.216-0.024c-0.228-0.036-0.551-0.191-0.647-0.239c0.144,0.18,0.204,0.323,0.36,0.455
		c0.168,0.132,0.504,0.312,0.78,0.36c0.275,0.048,0.443,0.144,0.492,0.228c0.024,0.024,0.036,0.06,0.036,0.096
		c0,0.084-0.072,0.216-0.264,0.348c-0.288,0.181-0.444,0.229-0.6,0.492c-0.156,0.264-0.168,0.492-0.252,0.684
		c-0.084,0.18-0.192,0.516-0.264,0.611c0.12-0.071,0.456-0.18,0.635-0.264c0.192-0.084,0.42-0.096,0.684-0.252
		c0.264-0.155,0.312-0.312,0.492-0.6c0.132-0.191,0.264-0.264,0.348-0.264c0.036,0,0.072,0.012,0.096,0.036
		c0.084,0.048,0.18,0.216,0.228,0.491c0.048,0.276,0.228,0.612,0.36,0.78c0.132,0.155,0.276,0.216,0.479,0.371
		c-0.06-0.084-0.228-0.419-0.264-0.659c-0.012-0.084-0.024-0.156-0.024-0.216c0-0.132,0.024-0.228,0.06-0.348
		c0.06-0.181,0.228-0.432,0.432-0.66c0.204-0.228,0.324-0.384,0.372-0.527c0.036-0.084,0.072-0.192,0.072-0.312
		c0-0.072-0.012-0.156-0.048-0.24c-0.084-0.204-0.252-0.336-0.252-0.456c0.036-0.155,0.156-0.216,0.252-0.216
		c0.144,0.036,0.54,0.24,0.743,0.432c0.204,0.192,0.408,0.36,0.552,0.492c0.144,0.132,0.3,0.575,0.444,0.756
		c0.144,0.18,0.264,0.947,0.276,1.067c0.012,0.084,0.012,0.264,0.012,0.563v0.432c-0.012,0.552-0.012,0.672-0.036,0.84
		c-0.012,0.107-0.024,0.203-0.024,0.275c0,0.192-0.012,0.336-0.012,0.479c0.012,0.108,0.036,0.324,0.036,0.468
		c0,0.145,0.024,0.408,0.024,0.636v0.996c-0.012,0.096-0.012,0.695-0.012,0.935c0,0.192,0.036,0.301,0.036,0.408
		c0,0.024-0.012,0.048-0.012,0.072c-0.012,0.084-0.024,0.228-0.024,0.348c0,0.084,0.012,0.18,0.012,0.228h-0.6
		c0.012-0.132,0.024-0.239,0.024-0.336c0-0.252-0.048-0.396-0.048-0.443c0-0.072-0.024-0.492-0.024-0.552
		c0-0.072,0.024-0.708,0.024-0.84c0-0.144,0-0.323-0.024-0.407c-0.012-0.024-0.012-0.072-0.012-0.132
		c0-0.108,0.012-0.252,0.036-0.396c0.012-0.071,0.012-0.132,0.012-0.18c0-0.107-0.012-0.216-0.024-0.407
		c0-0.312,0.048-0.42,0.048-0.828c0-0.432,0.012-0.756,0.012-0.911c0-0.132-0.036-0.528-0.036-0.779
		c0-0.168,0.012-0.217,0.012-0.265c0-0.18-0.036-0.384-0.036-0.552c0-0.216-0.096-0.455-0.12-0.552
		c-0.216-0.491-0.636-0.899-0.648-0.863c0,0.096,0.156,0.588,0.156,0.828c-0.024,0.371-0.3,0.563-0.456,0.72
		c-0.156,0.144-0.528,0.287-0.563,0.443c-0.024,0.107-0.084,0.252-0.084,0.384c0,0.048,0.012,0.107,0.036,0.144
		c0.084,0.12,0.192,0.264,0.348,0.264c0.204-0.012,0.456-0.18,0.479-0.3c0-0.155-0.048-0.335-0.072-0.359
		c-0.012-0.024,0.516,0.204,0.516,0.54s-0.132,0.455-0.456,0.563c-0.144,0.048-0.288,0.072-0.42,0.072
		c-0.204,0-0.396-0.049-0.528-0.108c-0.228-0.084-0.324-0.072-0.479-0.18c-0.144-0.096-0.168-0.24-0.312-0.312
		c-0.144-0.06-0.156-0.071-0.252-0.203c-0.096-0.132-0.24-0.468-0.276-0.576c-0.024-0.096-0.072-0.323-0.072-0.323
		s-0.072,0.312-0.504,0.6c-0.288,0.191-0.695,0.203-0.911,0.3c-0.228,0.096-0.42,0.084-0.564,0.191
		c-0.06,0.036-0.192,0.108-0.312,0.108c-0.06,0-0.108-0.013-0.156-0.061C108.914,9.003,108.89,8.942,108.89,8.882z M113.339,7.215
		c-0.06,0.048-0.083,0.048-0.348,0.336c-0.216,0.239-0.276,0.479-0.276,0.671c0,0.048,0.012,0.084,0.012,0.12
		c0.108-0.264,0.324-0.396,0.432-0.552c0.096-0.168,0.3-0.191,0.36-0.359c0.024-0.084,0.072-0.204,0.072-0.36
		c0-0.096-0.024-0.203-0.06-0.3C113.472,6.952,113.399,7.143,113.339,7.215z M110.953,4.457c-0.156,0-0.276,0.048-0.36,0.072
		c-0.168,0.06-0.192,0.264-0.36,0.359c-0.156,0.108-0.288,0.324-0.552,0.432c0.036,0,0.072,0.013,0.12,0.013
		c0.191,0,0.432-0.061,0.671-0.276c0.288-0.264,0.288-0.288,0.336-0.348c0.072-0.06,0.264-0.132,0.444-0.192
		C111.157,4.481,111.049,4.457,110.953,4.457z"/>
	<path class="st1" d="M8.365,9.366c-0.096,0-0.18-0.072-0.288-0.108C7.909,9.186,7.741,9.162,7.513,9.066
		c-0.216-0.096-0.624-0.108-0.911-0.3C6.194,8.49,6.098,8.203,6.098,8.179C6.085,8.214,6.038,8.406,6.026,8.49
		C5.99,8.598,5.846,8.934,5.751,9.066C5.654,9.198,5.642,9.21,5.499,9.27C5.354,9.342,5.331,9.486,5.186,9.581
		c-0.155,0.108-0.252,0.096-0.479,0.18C4.575,9.822,4.382,9.87,4.179,9.87c-0.132,0-0.276-0.024-0.42-0.072
		C3.435,9.689,3.303,9.57,3.303,9.234s0.528-0.563,0.516-0.54C3.795,8.718,3.748,8.898,3.748,9.018
		c0.023,0.156,0.275,0.324,0.443,0.336c0.191,0,0.3-0.144,0.384-0.264c0.024-0.036,0.036-0.096,0.036-0.144
		c0-0.132-0.061-0.276-0.084-0.384c-0.036-0.156-0.408-0.3-0.563-0.444C3.807,7.962,3.532,7.77,3.507,7.423
		c0-0.252,0.156-0.755,0.156-0.839c-0.108,0-0.444,0.419-0.648,0.852C2.992,7.531,2.896,7.77,2.896,7.987
		c0,0.204-0.145,0.456-0.145,0.647c0.024,0.252,0.048,0.731,0.048,0.888c0,0.156,0.013,0.54,0.013,0.971
		c0,0.408,0.048,0.516,0.048,0.756v0.072c-0.013,0.192-0.024,0.3-0.024,0.408c0,0.048,0,0.108,0.012,0.18
		c0.024,0.144,0.036,0.288,0.036,0.396c0,0.06,0,0.108-0.012,0.132C2.847,12.52,2.847,12.7,2.847,12.844
		c0,0.132,0.061,0.744,0.061,0.816c0,0.06-0.024,0.479-0.024,0.551c0,0.048-0.048,0.192-0.048,0.444
		c0,0.096,0.012,0.204,0.024,0.336h-0.6c0-0.048,0.012-0.144,0.012-0.228c0-0.12-0.012-0.264-0.024-0.348
		c0-0.024-0.012-0.048-0.012-0.072c0-0.108,0.036-0.216,0.036-0.408c0-0.24,0-0.408-0.012-0.504v-1.403
		c0-0.228,0.023-0.492,0.023-0.636c0-0.144,0.024-0.36,0.036-0.432c0-0.096-0.036-0.24-0.036-0.336c0-0.024,0.013-0.048,0.013-0.06
		c0.012-0.036,0.012-0.072,0.012-0.12c0-0.072-0.012-0.168-0.024-0.276C2.26,10.001,2.26,9.881,2.248,9.33V8.898
		c0-0.3,0-0.479,0.013-0.563c0.012-0.12,0.132-0.888,0.275-1.067c0.145-0.18,0.3-0.624,0.444-0.756
		c0.144-0.132,0.348-0.3,0.552-0.492c0.203-0.192,0.6-0.396,0.707-0.432c0.132,0,0.252,0.06,0.288,0.18
		c0,0.156-0.168,0.288-0.252,0.492c-0.036,0.084-0.048,0.167-0.048,0.24c0,0.12,0.036,0.228,0.072,0.312
		c0.048,0.144,0.167,0.3,0.371,0.528c0.204,0.228,0.372,0.48,0.432,0.66c0.036,0.12,0.061,0.216,0.061,0.348
		c0,0.06-0.013,0.132-0.024,0.216C5.102,8.79,4.947,9.114,4.899,9.21c0.18-0.144,0.323-0.204,0.455-0.36
		c0.132-0.168,0.312-0.504,0.36-0.78c0.048-0.275,0.144-0.443,0.228-0.492c0.024-0.024,0.06-0.036,0.096-0.036
		c0.084,0,0.216,0.072,0.348,0.264c0.181,0.288,0.229,0.444,0.492,0.6C7.141,8.562,7.37,8.574,7.561,8.658
		c0.18,0.084,0.516,0.192,0.611,0.264c-0.071-0.12-0.18-0.456-0.264-0.635c-0.084-0.192-0.096-0.42-0.252-0.684
		c-0.155-0.264-0.312-0.312-0.6-0.492C6.866,6.979,6.794,6.847,6.794,6.763c0-0.036,0.012-0.072,0.036-0.096
		c0.048-0.084,0.216-0.18,0.491-0.228c0.276-0.048,0.612-0.228,0.78-0.36C8.256,5.948,8.317,5.804,8.472,5.6
		C8.388,5.66,8.053,5.828,7.813,5.864C7.729,5.876,7.657,5.888,7.597,5.888c-0.132,0-0.228-0.024-0.348-0.06
		C7.069,5.768,6.818,5.6,6.589,5.396C6.362,5.192,6.206,5.072,6.062,5.024C5.978,4.988,5.87,4.952,5.751,4.952
		C5.678,4.952,5.594,4.964,5.51,5C5.306,5.084,5.174,5.252,5.054,5.252C4.899,5.216,4.838,5.096,4.838,5
		c0.036-0.144,0.24-0.54,0.432-0.743c0.192-0.204,0.36-0.408,0.492-0.552c0.132-0.144,0.575-0.3,0.756-0.444
		c0.18-0.144,0.947-0.264,1.067-0.276c0.084-0.012,0.264-0.012,0.563-0.012h0.432c0.552,0.012,0.672,0.012,0.84,0.036
		c0.107,0.012,0.203,0.024,0.275,0.024c0.192,0,0.336,0.012,0.479,0.012c0.108-0.012,0.324-0.036,0.468-0.036
		c0.145,0,0.408-0.024,0.636-0.024h0.996c0.096,0.012,0.695,0.012,0.935,0.012c0.192,0,0.301-0.036,0.408-0.036
		c0.024,0,0.048,0.012,0.072,0.012c0.084,0.012,0.228,0.024,0.348,0.024c0.084,0,0.18-0.012,0.228-0.012v0.6
		c-0.132-0.012-0.239-0.024-0.336-0.024c-0.252,0-0.396,0.048-0.443,0.048c-0.072,0-0.492,0.024-0.552,0.024
		c-0.072,0-0.708-0.024-0.84-0.024c-0.144,0-0.323,0-0.407,0.024c-0.024,0.012-0.072,0.012-0.132,0.012
		c-0.108,0-0.252-0.012-0.396-0.036c-0.071-0.012-0.132-0.012-0.18-0.012c-0.107,0-0.216,0.012-0.407,0.024
		c-0.312,0-0.42-0.048-0.828-0.048c-0.432,0-0.756-0.012-0.911-0.012c-0.132,0-0.528,0.036-0.779,0.036
		c-0.168,0-0.217-0.012-0.265-0.012c-0.18,0-0.384,0.036-0.552,0.036c-0.216,0-0.455,0.096-0.552,0.12
		C6.194,3.957,5.786,4.376,5.822,4.389c0.096,0,0.588-0.156,0.828-0.156c0.371,0.024,0.563,0.3,0.72,0.456
		c0.144,0.156,0.287,0.528,0.443,0.563C7.92,5.276,8.065,5.336,8.197,5.336c0.048,0,0.107-0.012,0.144-0.036
		c0.12-0.084,0.264-0.192,0.264-0.348c-0.012-0.204-0.18-0.456-0.3-0.479c-0.155,0-0.335,0.048-0.359,0.072
		C7.92,4.557,8.149,4.029,8.485,4.029S8.94,4.161,9.048,4.484c0.048,0.144,0.072,0.288,0.072,0.42c0,0.204-0.049,0.396-0.108,0.528
		C8.928,5.66,8.94,5.756,8.833,5.912C8.737,6.056,8.592,6.08,8.52,6.224C8.46,6.368,8.449,6.379,8.317,6.476
		c-0.132,0.096-0.468,0.24-0.576,0.276C7.645,6.775,7.418,6.823,7.418,6.823s0.312,0.072,0.6,0.504
		c0.191,0.288,0.203,0.695,0.3,0.911c0.096,0.228,0.084,0.42,0.191,0.564c0.036,0.06,0.108,0.192,0.108,0.312
		c0,0.06-0.013,0.108-0.061,0.156C8.485,9.342,8.424,9.366,8.365,9.366z M6.698,4.916C6.746,4.976,6.746,5,7.034,5.264
		C7.273,5.48,7.513,5.54,7.705,5.54c0.048,0,0.084-0.012,0.12-0.012C7.561,5.42,7.429,5.204,7.273,5.096
		C7.105,5,7.082,4.796,6.914,4.736C6.83,4.712,6.71,4.664,6.553,4.664c-0.096,0-0.203,0.024-0.3,0.06
		C6.434,4.784,6.626,4.856,6.698,4.916z M3.939,7.303c0,0.156,0.048,0.276,0.072,0.36c0.06,0.168,0.264,0.192,0.359,0.36
		C4.479,8.179,4.695,8.31,4.802,8.574c0-0.036,0.013-0.072,0.013-0.12c0-0.191-0.061-0.432-0.276-0.671
		C4.275,7.495,4.251,7.495,4.191,7.447c-0.06-0.072-0.132-0.264-0.192-0.444C3.963,7.099,3.939,7.207,3.939,7.303z"/>
</g>
<g>
	<path class="st1" d="M8.64,27.518c0,0.096-0.072,0.18-0.108,0.288C8.46,27.974,8.437,28.142,8.34,28.37
		c-0.096,0.216-0.108,0.624-0.3,0.911c-0.276,0.408-0.563,0.504-0.587,0.504c0.036,0.013,0.228,0.061,0.312,0.072
		c0.108,0.036,0.444,0.18,0.576,0.275c0.132,0.097,0.144,0.108,0.204,0.252c0.072,0.145,0.216,0.168,0.312,0.312
		c0.108,0.155,0.096,0.252,0.18,0.479c0.06,0.132,0.108,0.324,0.108,0.527c0,0.132-0.024,0.276-0.072,0.42
		c-0.108,0.324-0.228,0.456-0.564,0.456s-0.563-0.528-0.54-0.516c0.024,0.023,0.204,0.071,0.324,0.071
		c0.156-0.023,0.324-0.275,0.336-0.443c0-0.191-0.144-0.3-0.264-0.384c-0.036-0.024-0.096-0.036-0.144-0.036
		c-0.132,0-0.276,0.061-0.384,0.084c-0.156,0.036-0.3,0.408-0.444,0.563c-0.156,0.156-0.348,0.432-0.696,0.456
		c-0.252,0-0.755-0.156-0.839-0.156c0,0.108,0.419,0.444,0.852,0.648c0.096,0.023,0.335,0.119,0.552,0.119
		c0.204,0,0.456,0.145,0.647,0.145c0.252-0.024,0.731-0.048,0.888-0.048c0.156,0,0.54-0.013,0.971-0.013
		c0.408,0,0.516-0.048,0.756-0.048h0.072c0.192,0.013,0.3,0.024,0.408,0.024c0.048,0,0.108,0,0.18-0.012
		C11.327,33.012,11.471,33,11.579,33c0.06,0,0.108,0,0.132,0.012c0.084,0.024,0.264,0.024,0.408,0.024
		c0.132,0,0.744-0.061,0.816-0.061c0.06,0,0.479,0.024,0.551,0.024c0.048,0,0.192,0.048,0.444,0.048
		c0.096,0,0.204-0.012,0.336-0.024v0.6c-0.048,0-0.144-0.012-0.228-0.012c-0.12,0-0.264,0.012-0.348,0.024
		c-0.024,0-0.048,0.012-0.072,0.012c-0.108,0-0.216-0.036-0.408-0.036c-0.24,0-0.408,0-0.504,0.012h-1.403
		c-0.228,0-0.492-0.023-0.636-0.023c-0.144,0-0.36-0.024-0.432-0.036c-0.096,0-0.24,0.036-0.336,0.036
		c-0.024,0-0.048-0.013-0.06-0.013c-0.036-0.012-0.072-0.012-0.12-0.012c-0.072,0-0.168,0.012-0.276,0.024
		c-0.168,0.023-0.288,0.023-0.839,0.036H8.172c-0.3,0-0.479,0-0.563-0.013c-0.12-0.012-0.888-0.132-1.067-0.275
		c-0.18-0.145-0.624-0.3-0.756-0.444c-0.132-0.144-0.3-0.348-0.492-0.552c-0.192-0.203-0.396-0.6-0.432-0.707
		c0-0.132,0.06-0.252,0.18-0.288c0.156,0,0.288,0.168,0.492,0.252c0.084,0.036,0.167,0.048,0.24,0.048
		c0.12,0,0.228-0.036,0.312-0.072c0.144-0.048,0.3-0.167,0.528-0.371c0.228-0.204,0.48-0.372,0.66-0.432
		c0.12-0.036,0.216-0.061,0.348-0.061c0.06,0,0.132,0.013,0.216,0.024c0.228,0.036,0.551,0.191,0.647,0.239
		c-0.144-0.18-0.204-0.323-0.36-0.455c-0.168-0.132-0.504-0.312-0.78-0.36c-0.275-0.048-0.443-0.144-0.492-0.228
		c-0.024-0.024-0.036-0.06-0.036-0.096c0-0.084,0.072-0.216,0.264-0.348c0.288-0.181,0.444-0.229,0.6-0.492
		c0.156-0.264,0.168-0.492,0.252-0.684c0.084-0.18,0.192-0.516,0.264-0.611c-0.12,0.071-0.456,0.18-0.635,0.264
		c-0.192,0.084-0.42,0.096-0.684,0.252c-0.264,0.155-0.312,0.312-0.492,0.6c-0.132,0.191-0.264,0.264-0.348,0.264
		c-0.036,0-0.072-0.012-0.096-0.036c-0.084-0.048-0.18-0.216-0.228-0.491c-0.048-0.276-0.228-0.612-0.36-0.78
		c-0.132-0.155-0.276-0.216-0.479-0.371c0.06,0.084,0.228,0.419,0.264,0.659c0.012,0.084,0.024,0.156,0.024,0.216
		c0,0.132-0.024,0.228-0.06,0.348c-0.06,0.181-0.228,0.432-0.432,0.66c-0.204,0.228-0.324,0.384-0.372,0.527
		c-0.036,0.084-0.072,0.192-0.072,0.312c0,0.072,0.012,0.156,0.048,0.24c0.084,0.204,0.252,0.336,0.252,0.456
		c-0.036,0.155-0.156,0.216-0.252,0.216c-0.144-0.036-0.54-0.24-0.743-0.432c-0.204-0.192-0.408-0.36-0.552-0.492
		c-0.144-0.132-0.3-0.575-0.444-0.756c-0.144-0.18-0.264-0.947-0.276-1.067c-0.012-0.084-0.012-0.264-0.012-0.563v-0.432
		c0.012-0.552,0.012-0.672,0.036-0.84c0.012-0.107,0.024-0.203,0.024-0.275c0-0.192,0.012-0.336,0.012-0.479
		c-0.012-0.108-0.036-0.324-0.036-0.468c0-0.145-0.024-0.408-0.024-0.636v-0.996c0.012-0.096,0.012-0.695,0.012-0.935
		c0-0.192-0.036-0.301-0.036-0.408c0-0.024,0.012-0.048,0.012-0.072c0.012-0.084,0.024-0.228,0.024-0.348
		c0-0.084-0.012-0.18-0.012-0.228h0.6c-0.012,0.132-0.024,0.239-0.024,0.336c0,0.252,0.048,0.396,0.048,0.443
		c0,0.072,0.024,0.492,0.024,0.552c0,0.072-0.024,0.708-0.024,0.84c0,0.144,0,0.323,0.024,0.407
		c0.012,0.024,0.012,0.072,0.012,0.132c0,0.108-0.012,0.252-0.036,0.396c-0.012,0.071-0.012,0.132-0.012,0.18
		c0,0.107,0.012,0.216,0.024,0.407c0,0.312-0.048,0.42-0.048,0.828c0,0.432-0.012,0.756-0.012,0.911
		c0,0.132,0.036,0.528,0.036,0.779c0,0.168-0.012,0.217-0.012,0.265c0,0.18,0.036,0.384,0.036,0.552c0,0.216,0.096,0.455,0.12,0.552
		c0.216,0.491,0.636,0.899,0.648,0.863c0-0.096-0.156-0.588-0.156-0.828c0.024-0.371,0.3-0.563,0.456-0.72
		c0.156-0.144,0.528-0.287,0.563-0.443c0.024-0.107,0.084-0.252,0.084-0.384c0-0.048-0.012-0.107-0.036-0.144
		c-0.084-0.12-0.192-0.264-0.348-0.264c-0.204,0.012-0.456,0.18-0.479,0.3c0,0.155,0.048,0.335,0.072,0.359
		c0.012,0.024-0.516-0.204-0.516-0.54s0.132-0.455,0.456-0.563c0.144-0.048,0.288-0.072,0.42-0.072c0.204,0,0.396,0.049,0.528,0.108
		c0.228,0.084,0.324,0.072,0.479,0.18c0.144,0.096,0.168,0.24,0.312,0.312c0.144,0.06,0.156,0.071,0.252,0.203
		c0.096,0.132,0.24,0.468,0.276,0.576c0.024,0.096,0.072,0.323,0.072,0.323s0.072-0.312,0.504-0.6
		c0.288-0.191,0.695-0.203,0.911-0.3c0.228-0.096,0.42-0.084,0.564-0.191c0.06-0.036,0.192-0.108,0.312-0.108
		c0.06,0,0.108,0.013,0.156,0.061C8.616,27.398,8.64,27.459,8.64,27.518z M4.191,29.185c0.06-0.048,0.083-0.048,0.348-0.336
		c0.216-0.239,0.276-0.479,0.276-0.671c0-0.048-0.012-0.084-0.012-0.12c-0.108,0.264-0.324,0.396-0.432,0.552
		c-0.096,0.168-0.3,0.191-0.36,0.359c-0.024,0.084-0.072,0.204-0.072,0.36c0,0.096,0.024,0.203,0.06,0.3
		C4.059,29.449,4.131,29.258,4.191,29.185z M6.577,31.944c0.156,0,0.276-0.048,0.36-0.072c0.168-0.06,0.192-0.264,0.36-0.359
		c0.156-0.108,0.288-0.324,0.552-0.432c-0.036,0-0.072-0.013-0.12-0.013c-0.191,0-0.432,0.061-0.671,0.276
		c-0.288,0.264-0.288,0.288-0.336,0.348c-0.072,0.06-0.264,0.132-0.444,0.192C6.374,31.92,6.481,31.944,6.577,31.944z"/>
	<path class="st1" d="M109.166,27.243c0.096,0,0.18,0.072,0.288,0.108c0.168,0.072,0.336,0.096,0.563,0.192
		c0.216,0.096,0.624,0.108,0.911,0.3c0.408,0.276,0.504,0.563,0.504,0.587c0.013-0.036,0.061-0.228,0.072-0.312
		c0.036-0.108,0.18-0.444,0.275-0.576c0.097-0.132,0.108-0.144,0.252-0.204c0.145-0.072,0.168-0.216,0.312-0.312
		c0.155-0.108,0.252-0.096,0.479-0.18c0.132-0.06,0.324-0.108,0.527-0.108c0.132,0,0.276,0.024,0.42,0.072
		c0.324,0.108,0.456,0.228,0.456,0.564s-0.528,0.563-0.516,0.54c0.023-0.024,0.071-0.204,0.071-0.324
		c-0.023-0.156-0.275-0.324-0.443-0.336c-0.191,0-0.3,0.144-0.384,0.264c-0.024,0.036-0.036,0.096-0.036,0.144
		c0,0.132,0.061,0.276,0.084,0.384c0.036,0.156,0.408,0.3,0.563,0.444c0.156,0.156,0.432,0.348,0.456,0.696
		c0,0.252-0.156,0.755-0.156,0.839c0.108,0,0.444-0.419,0.648-0.852c0.023-0.096,0.119-0.335,0.119-0.552
		c0-0.204,0.145-0.456,0.145-0.647c-0.024-0.252-0.048-0.731-0.048-0.888c0-0.156-0.013-0.54-0.013-0.971
		c0-0.408-0.048-0.516-0.048-0.756v-0.072c0.013-0.192,0.024-0.3,0.024-0.408c0-0.048,0-0.108-0.012-0.18
		c-0.024-0.144-0.036-0.288-0.036-0.396c0-0.06,0-0.108,0.012-0.132c0.024-0.084,0.024-0.264,0.024-0.408
		c0-0.132-0.061-0.744-0.061-0.816c0-0.06,0.024-0.479,0.024-0.551c0-0.048,0.048-0.192,0.048-0.444
		c0-0.096-0.012-0.204-0.024-0.336h0.6c0,0.048-0.012,0.144-0.012,0.228c0,0.12,0.012,0.264,0.024,0.348
		c0,0.024,0.012,0.048,0.012,0.072c0,0.108-0.036,0.216-0.036,0.408c0,0.24,0,0.408,0.012,0.504v1.403
		c0,0.228-0.023,0.492-0.023,0.636c0,0.144-0.024,0.36-0.036,0.432c0,0.096,0.036,0.24,0.036,0.336c0,0.024-0.013,0.048-0.013,0.06
		c-0.012,0.036-0.012,0.072-0.012,0.12c0,0.072,0.012,0.168,0.024,0.276c0.023,0.168,0.023,0.288,0.036,0.839v0.432
		c0,0.3,0,0.479-0.013,0.563c-0.012,0.12-0.132,0.888-0.275,1.067c-0.145,0.18-0.3,0.624-0.444,0.756
		c-0.144,0.132-0.348,0.3-0.552,0.492c-0.203,0.192-0.6,0.396-0.707,0.432c-0.132,0-0.252-0.06-0.288-0.18
		c0-0.156,0.168-0.288,0.252-0.492c0.036-0.084,0.048-0.167,0.048-0.24c0-0.12-0.036-0.228-0.072-0.312
		c-0.048-0.144-0.167-0.3-0.371-0.528c-0.204-0.228-0.372-0.48-0.432-0.66c-0.036-0.12-0.061-0.216-0.061-0.348
		c0-0.06,0.013-0.132,0.024-0.216c0.036-0.228,0.191-0.551,0.239-0.647c-0.18,0.144-0.323,0.204-0.455,0.36
		c-0.132,0.168-0.312,0.504-0.36,0.78c-0.048,0.275-0.144,0.443-0.228,0.492c-0.024,0.024-0.06,0.036-0.096,0.036
		c-0.084,0-0.216-0.072-0.348-0.264c-0.181-0.288-0.229-0.444-0.492-0.6c-0.264-0.156-0.492-0.168-0.684-0.252
		c-0.18-0.084-0.516-0.192-0.611-0.264c0.071,0.12,0.18,0.456,0.264,0.635c0.084,0.192,0.096,0.42,0.252,0.684
		c0.155,0.264,0.312,0.312,0.6,0.492c0.191,0.132,0.264,0.264,0.264,0.348c0,0.036-0.012,0.072-0.036,0.096
		c-0.048,0.084-0.216,0.18-0.491,0.228c-0.276,0.048-0.612,0.228-0.78,0.36c-0.155,0.132-0.216,0.276-0.371,0.479
		c0.084-0.06,0.419-0.228,0.659-0.264c0.084-0.012,0.156-0.024,0.216-0.024c0.132,0,0.228,0.024,0.348,0.06
		c0.181,0.06,0.432,0.228,0.66,0.432c0.228,0.204,0.384,0.324,0.527,0.372c0.084,0.036,0.192,0.072,0.312,0.072
		c0.072,0,0.156-0.012,0.24-0.048c0.204-0.084,0.336-0.252,0.456-0.252c0.155,0.036,0.216,0.156,0.216,0.252
		c-0.036,0.144-0.24,0.54-0.432,0.743c-0.192,0.204-0.36,0.408-0.492,0.552c-0.132,0.144-0.575,0.3-0.756,0.444
		c-0.18,0.144-0.947,0.264-1.067,0.276c-0.084,0.012-0.264,0.012-0.563,0.012h-0.432c-0.552-0.012-0.672-0.012-0.84-0.036
		c-0.107-0.012-0.203-0.024-0.275-0.024c-0.192,0-0.336-0.012-0.479-0.012c-0.108,0.012-0.324,0.036-0.468,0.036
		c-0.145,0-0.408,0.024-0.636,0.024h-0.996c-0.096-0.012-0.695-0.012-0.935-0.012c-0.192,0-0.301,0.036-0.408,0.036
		c-0.024,0-0.048-0.012-0.072-0.012c-0.084-0.012-0.228-0.024-0.348-0.024c-0.084,0-0.18,0.012-0.228,0.012v-0.6
		c0.132,0.012,0.239,0.024,0.336,0.024c0.252,0,0.396-0.048,0.443-0.048c0.072,0,0.492-0.024,0.552-0.024
		c0.072,0,0.708,0.024,0.84,0.024c0.144,0,0.323,0,0.407-0.024c0.024-0.012,0.072-0.012,0.132-0.012
		c0.108,0,0.252,0.012,0.396,0.036c0.071,0.012,0.132,0.012,0.18,0.012c0.107,0,0.216-0.012,0.407-0.024
		c0.312,0,0.42,0.048,0.828,0.048c0.432,0,0.756,0.012,0.911,0.012c0.132,0,0.528-0.036,0.779-0.036
		c0.168,0,0.217,0.012,0.265,0.012c0.18,0,0.384-0.036,0.552-0.036c0.216,0,0.455-0.096,0.552-0.12
		c0.491-0.216,0.899-0.636,0.863-0.648c-0.096,0-0.588,0.156-0.828,0.156c-0.371-0.024-0.563-0.3-0.72-0.456
		c-0.144-0.156-0.287-0.528-0.443-0.563c-0.107-0.024-0.252-0.084-0.384-0.084c-0.048,0-0.107,0.012-0.144,0.036
		c-0.12,0.084-0.264,0.192-0.264,0.348c0.012,0.204,0.18,0.456,0.3,0.479c0.155,0,0.335-0.048,0.359-0.072
		c0.024-0.012-0.204,0.516-0.54,0.516s-0.455-0.132-0.563-0.456c-0.048-0.144-0.072-0.288-0.072-0.42
		c0-0.204,0.049-0.396,0.108-0.528c0.084-0.228,0.072-0.324,0.18-0.479c0.096-0.144,0.24-0.168,0.312-0.312
		c0.06-0.144,0.071-0.156,0.203-0.252c0.132-0.096,0.468-0.24,0.576-0.276c0.096-0.024,0.323-0.072,0.323-0.072
		s-0.312-0.072-0.6-0.504c-0.191-0.288-0.203-0.695-0.3-0.911c-0.096-0.228-0.084-0.42-0.191-0.564
		c-0.036-0.06-0.108-0.192-0.108-0.312c0-0.06,0.013-0.108,0.061-0.156C109.045,27.267,109.106,27.243,109.166,27.243z
		 M110.833,31.692c-0.048-0.06-0.048-0.083-0.336-0.348c-0.239-0.216-0.479-0.276-0.671-0.276c-0.048,0-0.084,0.012-0.12,0.012
		c0.264,0.108,0.396,0.324,0.552,0.432c0.168,0.096,0.191,0.3,0.359,0.36c0.084,0.024,0.204,0.072,0.36,0.072
		c0.096,0,0.203-0.024,0.3-0.06C111.096,31.825,110.905,31.752,110.833,31.692z M113.591,29.306c0-0.156-0.048-0.276-0.072-0.36
		c-0.06-0.168-0.264-0.192-0.359-0.36c-0.108-0.156-0.324-0.288-0.432-0.552c0,0.036-0.013,0.072-0.013,0.12
		c0,0.191,0.061,0.432,0.276,0.671c0.264,0.288,0.288,0.288,0.348,0.336c0.06,0.072,0.132,0.264,0.192,0.444
		C113.567,29.51,113.591,29.402,113.591,29.306z"/>
</g>
<g>
	<g>
		<g>
			<path class="st1" d="M9.84,33.364c0.898,0,0.898-0.021,1.797-0.021c0.898,0,0.898-0.007,1.797-0.007
				c0.899,0,0.899,0.026,1.797,0.026c0.899,0,0.899-0.093,1.798-0.093c0.899,0,0.899,0.095,1.799,0.095c0.9,0,0.9-0.035,1.8-0.035
				c0.9,0,0.9,0.025,1.799,0.025c0.899,0,0.899-0.008,1.798-0.008c0.899,0,0.899-0.021,1.798-0.021c0.899,0,0.899-0.083,1.798-0.083
				c0.899,0,0.899-0.007,1.798-0.007c0.899,0,0.899,0.033,1.799,0.033c0.9,0,0.9,0.021,1.8,0.021c0.9,0,0.9-0.048,1.8-0.048
				c0.9,0,0.9,0.082,1.799,0.082c0.899,0,0.899,0.011,1.799,0.011c0.899,0,0.899,0.033,1.799,0.033c0.9,0,0.9-0.114,1.799-0.114
				c0.9,0,0.9-0.012,1.801-0.012c0.9,0,0.9,0.033,1.8,0.033c0.9,0,0.9-0.012,1.799-0.012c0.9,0,0.9,0.025,1.799,0.025
				c0.9,0,0.9-0.039,1.8-0.039c0.901,0,0.901,0.03,1.801,0.03c0.899,0,0.899-0.043,1.798-0.043c0.898,0,0.898,0.112,1.796,0.112
				c0.898,0,0.898-0.086,1.795-0.086c0.898,0,0.898,0.015,1.795,0.015c0.898,0,0.898,0.068,1.797,0.068c0.9,0,0.9,0.012,1.8,0.012
				c0.901,0,0.901-0.045,1.802-0.045c0.899,0,0.899-0.073,1.799-0.073c0.899,0,0.899,0.116,1.798,0.116
				c0.899,0,0.899-0.11,1.799-0.11c0.901,0,0.901,0.035,1.802,0.035c0.901,0,0.901,0.072,1.801,0.072c0.9,0,0.9-0.067,1.8-0.067
				c0.9,0,0.9,0.029,1.801,0.029c0.901,0,0.901-0.077,1.803-0.077c0.9,0,0.9,0.04,1.801,0.04c0.902,0,0.902,0.032,1.803,0.032
				c0.901,0,0.901,0.03,1.802,0.03c0.902,0,0.902,0.035,1.804,0.035c0.901,0,0.901-0.032,1.803-0.032
				c0.899,0,0.899-0.094,1.798-0.094c0.902,0,0.902,0.112,1.804,0.112c0.901,0,0.901-0.068,1.801-0.068
				c0.902,0,0.902,0.028,1.804,0.028c0.903,0,0.903,0.048,1.806,0.048c0.902,0,0.902-0.029,1.803-0.029
				c0.904,0,0.904-0.021,1.807-0.021c0.905,0,0.905,0.024,1.81,0.024c0.905,0,0.905-0.035,1.81-0.035"/>
		</g>
		<g>
			<path class="st1" d="M105.269,33.624c-0.859,0.263-0.912-0.013-1.811-0.013c-0.898,0-0.898-0.008-1.797-0.008
				c-0.899,0-0.899,0.016-1.797,0.016c-0.899,0-0.899-0.089-1.798-0.089c-0.899,0-0.899,0.042-1.799,0.042c-0.9,0-0.9-0.03-1.8-0.03
				c-0.9,0-0.9-0.008-1.799-0.008c-0.899,0-0.899,0.078-1.798,0.078c-0.899,0-0.899-0.025-1.798-0.025
				c-0.899,0-0.899,0.023-1.798,0.023c-0.899,0-0.899-0.039-1.798-0.039c-0.899,0-0.899-0.054-1.799-0.054
				c-0.9,0-0.9,0.021-1.8,0.021c-0.9,0-0.9,0.007-1.8,0.007c-0.9,0-0.9-0.026-1.799-0.026c-0.899,0-0.899,0.093-1.799,0.093
				c-0.899,0-0.899-0.095-1.799-0.095c-0.9,0-0.9,0.035-1.799,0.035c-0.9,0-0.9-0.025-1.801-0.025c-0.9,0-0.9,0.008-1.8,0.008
				c-0.9,0-0.9,0.021-1.799,0.021c-0.9,0-0.9,0.083-1.799,0.083c-0.9,0-0.9,0.007-1.8,0.007c-0.901,0-0.901-0.033-1.801-0.033
				c-0.899,0-0.899-0.021-1.798-0.021c-0.898,0-0.898,0.048-1.796,0.048c-0.898,0-0.898-0.082-1.795-0.082
				c-0.898,0-0.898-0.011-1.795-0.011c-0.898,0-0.898-0.033-1.797-0.033c-0.9,0-0.9,0.114-1.8,0.114
				c-0.901,0-0.901,0.012-1.802,0.012c-0.899,0-0.899-0.033-1.799-0.033c-0.899,0-0.899,0.012-1.798,0.012
				c-0.899,0-0.899-0.025-1.799-0.025c-0.901,0-0.901,0.039-1.802,0.039c-0.901,0-0.901-0.03-1.801-0.03c-0.9,0-0.9,0.043-1.8,0.043
				c-0.9,0-0.9-0.112-1.801-0.112c-0.901,0-0.901,0.086-1.803,0.086c-0.9,0-0.9-0.015-1.801-0.015c-0.902,0-0.902-0.068-1.803-0.068
				c-0.901,0-0.901-0.012-1.802-0.012c-0.902,0-0.902,0.045-1.804,0.045c-0.901,0-0.901,0.073-1.803,0.073
				c-0.899,0-0.899-0.116-1.798-0.116c-0.902,0-0.902,0.11-1.804,0.11c-0.901,0-0.901-0.035-1.801-0.035
				c-0.902,0-0.902-0.072-1.804-0.072c-0.903,0-0.903,0.067-1.806,0.067c-0.902,0-0.902-0.029-1.803-0.029
				c-0.904,0-0.904,0.077-1.807,0.077c-0.905,0-0.905-0.04-1.81-0.04s-0.944,0.232-1.809-0.032c-0.263-0.08-0.254-0.436,0.009-0.516
				c0.859-0.263,0.889,0.036,1.787,0.036c0.898,0,0.898-0.032,1.797-0.032c0.899,0,0.899-0.094,1.797-0.094
				c0.899,0,0.899,0.112,1.798,0.112c0.899,0,0.899-0.068,1.799-0.068c0.9,0,0.9,0.028,1.8,0.028c0.9,0,0.9,0.048,1.799,0.048
				c0.899,0,0.899-0.029,1.798-0.029c0.899,0,0.899-0.021,1.798-0.021c0.899,0,0.899,0.024,1.798,0.024
				c0.899,0,0.899-0.035,1.798-0.035c0.899,0,0.899,0.063,1.799,0.063c0.9,0,0.9-0.01,1.8-0.01c0.9,0,0.9-0.056,1.8-0.056
				c0.9,0,0.9-0.062,1.799-0.062c0.899,0,0.899,0.065,1.799,0.065c0.899,0,0.899-0.058,1.799-0.058c0.9,0,0.9,0.092,1.799,0.092
				c0.9,0,0.9-0.049,1.801-0.049c0.9,0,0.9,0.066,1.8,0.066c0.9,0,0.9-0.017,1.799-0.017c0.9,0,0.9-0.054,1.799-0.054
				c0.9,0,0.9-0.005,1.8-0.005c0.901,0,0.901-0.028,1.801-0.028c0.899,0,0.899,0.122,1.798,0.122c0.898,0,0.898-0.12,1.796-0.12
				c0.898,0,0.898-0.018,1.795-0.018c0.898,0,0.898,0.111,1.795,0.111c0.898,0,0.898-0.03,1.797-0.03c0.9,0,0.9-0.046,1.8-0.046
				c0.901,0,0.901,0.073,1.802,0.073c0.899,0,0.899-0.048,1.799-0.048c0.899,0,0.899,0.035,1.798,0.035
				c0.899,0,0.899-0.094,1.799-0.094c0.901,0,0.901,0.095,1.802,0.095c0.901,0,0.901,0.043,1.801,0.043c0.9,0,0.9-0.017,1.8-0.017
				c0.9,0,0.9-0.073,1.801-0.073c0.901,0,0.901-0.034,1.803-0.034c0.9,0,0.9,0.108,1.801,0.108c0.902,0,0.902-0.088,1.803-0.088
				c0.901,0,0.901-0.02,1.802-0.02c0.902,0,0.902,0.098,1.804,0.098c0.901,0,0.901-0.021,1.803-0.021
				c0.899,0,0.899,0.038,1.798,0.038c0.902,0,0.902-0.059,1.804-0.059c0.901,0,0.901,0.007,1.801,0.007
				c0.902,0,0.902-0.021,1.804-0.021c0.903,0,0.903,0.034,1.806,0.034c0.902,0,0.902,0.019,1.803,0.019
				c0.904,0,0.904-0.084,1.807-0.084c0.905,0,0.905,0.072,1.81,0.072c0.905,0,0.941-0.284,1.819-0.067
				C105.59,33.071,105.533,33.543,105.269,33.624z"/>
		</g>
	</g>
</g>
<g>
	<g>
		<g>
			<path class="st1" d="M9.84,3.284c0.898-0.003,0.899,0.052,1.797,0.049c0.898-0.003,0.898-0.103,1.796-0.106
				c0.899-0.003,0.899,0.012,1.797,0.009c0.899-0.003,0.899,0.006,1.798,0.003c0.899-0.003,0.899-0.019,1.799-0.021
				c0.9-0.003,0.9,0.086,1.801,0.083c0.9-0.003,0.9-0.044,1.799-0.047c0.899-0.003,0.899,0.027,1.799,0.025
				c0.899-0.003,0.899,0.005,1.798,0.002c0.899-0.003,0.899-0.081,1.798-0.084c0.899-0.003,0.899,0.022,1.798,0.02
				c0.899-0.003,0.899-0.026,1.799-0.029c0.9-0.003,0.9,0.037,1.8,0.034c0.9-0.003,0.9,0.051,1.8,0.048
				c0.9-0.003,0.9-0.023,1.799-0.026c0.899-0.003,0.899-0.01,1.799-0.012c0.899-0.003,0.899,0.024,1.799,0.021
				c0.9-0.003,0.899-0.095,1.799-0.098c0.9-0.003,0.901,0.092,1.801,0.09c0.9-0.003,0.9-0.038,1.8-0.041
				c0.9-0.003,0.9,0.023,1.799,0.02c0.9-0.003,0.9-0.01,1.799-0.013c0.9-0.003,0.9-0.024,1.8-0.026
				c0.901-0.003,0.9-0.086,1.801-0.088c0.899-0.003,0.899-0.01,1.798-0.013c0.898-0.003,0.898,0.03,1.796,0.028
				c0.898-0.003,0.898,0.018,1.795,0.015c0.898-0.003,0.898-0.051,1.795-0.054c0.898-0.003,0.899,0.08,1.797,0.077
				c0.9-0.003,0.9,0.008,1.8,0.006c0.901-0.003,0.901,0.031,1.802,0.028c0.899-0.003,0.899-0.117,1.798-0.119
				c0.899-0.003,0.899-0.015,1.798-0.018c0.899-0.003,0.899,0.03,1.799,0.028c0.901-0.003,0.901-0.015,1.802-0.018
				c0.901-0.003,0.901,0.022,1.801,0.02c0.9-0.003,0.9-0.042,1.8-0.045c0.9-0.003,0.901,0.027,1.801,0.024
				c0.901-0.003,0.901-0.045,1.803-0.048C80.9,3.006,80.9,3.118,81.8,3.115c0.902-0.003,0.901-0.089,1.803-0.092
				c0.901-0.003,0.901,0.012,1.802,0.009c0.902-0.003,0.902,0.066,1.804,0.063c0.901-0.003,0.901,0.009,1.803,0.007
				c0.899-0.003,0.899-0.047,1.798-0.05c0.902-0.003,0.902-0.075,1.804-0.078c0.901-0.003,0.901,0.113,1.802,0.11
				c0.902-0.003,0.901-0.113,1.803-0.115c0.903-0.003,0.903,0.033,1.806,0.03c0.902-0.003,0.902,0.069,1.803,0.066
				c0.904-0.003,0.903-0.07,1.807-0.072c0.905-0.003,0.905,0.026,1.81,0.023c0.905-0.003,0.905-0.079,1.81-0.082"/>
		</g>
		<g>
			<path class="st1" d="M9.853,3.52C9.59,3.441,9.583,3.114,9.846,3.033c0.858-0.266,0.892-0.085,1.79-0.087
				c0.898-0.003,0.898-0.01,1.797-0.013c0.899-0.003,0.899,0.03,1.797,0.028c0.899-0.003,0.899,0.018,1.798,0.015
				c0.899-0.003,0.899-0.051,1.799-0.054c0.9-0.003,0.9,0.08,1.801,0.077c0.9-0.003,0.9,0.008,1.799,0.006
				c0.899-0.003,0.899,0.031,1.799,0.028c0.899-0.003,0.899-0.117,1.798-0.119c0.899-0.003,0.899-0.015,1.798-0.018
				c0.899-0.003,0.899,0.03,1.798,0.028c0.899-0.003,0.899-0.015,1.799-0.018c0.9-0.003,0.9,0.022,1.8,0.02
				c0.9-0.003,0.9-0.042,1.8-0.045c0.9-0.003,0.9,0.027,1.799,0.024c0.899-0.003,0.899-0.045,1.798-0.048
				c0.899-0.003,0.9,0.109,1.799,0.106c0.9-0.003,0.899-0.089,1.799-0.092c0.9-0.003,0.9,0.012,1.801,0.009
				c0.9-0.003,0.9,0.066,1.8,0.063c0.9-0.003,0.9,0.009,1.799,0.007c0.9-0.003,0.899-0.047,1.799-0.05
				c0.9-0.003,0.9-0.075,1.8-0.078c0.901-0.003,0.901,0.113,1.802,0.11c0.899-0.003,0.899-0.113,1.798-0.115
				c0.898-0.003,0.898,0.033,1.796,0.03c0.898-0.003,0.898,0.069,1.795,0.066c0.898-0.003,0.898-0.07,1.795-0.072
				c0.898-0.003,0.899,0.026,1.797,0.023c0.9-0.003,0.9-0.079,1.799-0.082c0.901-0.003,0.901,0.037,1.802,0.035
				c0.899-0.003,0.9,0.029,1.799,0.026c0.899-0.003,0.899,0.028,1.798,0.025c0.899-0.003,0.899,0.032,1.799,0.029
				c0.901-0.003,0.901-0.035,1.801-0.038c0.901-0.003,0.9-0.097,1.801-0.1c0.9-0.003,0.9,0.109,1.8,0.107
				c0.9-0.003,0.9-0.07,1.801-0.073c0.901-0.003,0.902,0.026,1.803,0.023c0.9-0.003,0.901,0.045,1.801,0.043
				c0.902-0.003,0.901-0.032,1.803-0.034c0.901-0.003,0.901-0.024,1.802-0.026c0.902-0.003,0.902,0.021,1.804,0.018
				c0.901-0.003,0.901-0.037,1.803-0.04c0.899-0.003,0.899,0.06,1.798,0.057c0.902-0.003,0.902-0.012,1.804-0.015
				c0.901-0.003,0.9-0.059,1.801-0.062c0.902-0.003,0.902-0.065,1.803-0.068c0.903-0.003,0.903,0.062,1.806,0.059
				c0.902-0.003,0.901-0.061,1.803-0.063c0.904-0.003,0.904,0.089,1.808,0.087c0.905-0.003,0.905-0.052,1.81-0.054
				c0.905-0.003,0.929-0.202,1.795,0.059c0.264,0.079,0.27,0.387,0.007,0.468c-0.858,0.266-0.888,0.055-1.786,0.057
				c-0.898,0.003-0.898,0.008-1.797,0.01c-0.899,0.003-0.899,0.031-1.797,0.034c-0.899,0.003-0.899-0.119-1.798-0.116
				c-0.899,0.003-0.899,0.123-1.799,0.125c-0.9,0.003-0.9,0.021-1.8,0.024c-0.9,0.003-0.9-0.108-1.8-0.105
				C91.77,3.277,91.77,3.308,90.871,3.31c-0.899,0.003-0.899,0.048-1.798,0.051c-0.899,0.003-0.899-0.07-1.798-0.068
				c-0.899,0.003-0.899,0.051-1.798,0.053c-0.899,0.003-0.899-0.032-1.799-0.029c-0.9,0.003-0.9,0.096-1.8,0.099
				c-0.9,0.003-0.9-0.092-1.801-0.09c-0.9,0.003-0.9-0.04-1.799-0.038c-0.899,0.003-0.899,0.02-1.799,0.022
				c-0.899,0.003-0.899,0.075-1.798,0.078c-0.9,0.003-0.9,0.036-1.799,0.039c-0.9,0.003-0.901-0.105-1.801-0.103
				c-0.9,0.003-0.9,0.091-1.8,0.094c-0.9,0.003-0.9,0.023-1.799,0.025c-0.9,0.003-0.9-0.095-1.8-0.093
				c-0.9,0.003-0.9,0.024-1.8,0.027c-0.901,0.003-0.901-0.035-1.801-0.033c-0.899,0.003-0.899,0.061-1.798,0.064
				c-0.898,0.003-0.898-0.005-1.796-0.002C57.59,3.41,57.59,3.431,56.692,3.434c-0.898,0.003-0.898-0.031-1.796-0.029
				c-0.898,0.003-0.898-0.017-1.797-0.014c-0.9,0.003-0.9,0.087-1.799,0.089c-0.901,0.003-0.901-0.069-1.802-0.067
				c-0.899,0.003-0.899,0.071-1.799,0.074c-0.899,0.003-0.899-0.046-1.798-0.043c-0.899,0.003-0.899-0.029-1.799-0.026
				c-0.901,0.003-0.901,0.096-1.801,0.099c-0.901,0.003-0.901,0.003-1.801,0.005c-0.9,0.003-0.9-0.085-1.8-0.082
				c-0.9,0.003-0.9-0.008-1.801-0.005c-0.901,0.003-0.901,0.067-1.803,0.07c-0.9,0.003-0.9,0.041-1.801,0.044
				c-0.902,0.003-0.902-0.065-1.803-0.062c-0.901,0.003-0.901,0.03-1.802,0.033c-0.902,0.003-0.902-0.06-1.804-0.058
				c-0.901,0.003-0.901,0.096-1.802,0.099c-0.899,0.003-0.899-0.074-1.798-0.071c-0.902,0.003-0.902-0.023-1.804-0.02
				c-0.901,0.003-0.901,0.033-1.801,0.036c-0.902,0.003-0.902-0.015-1.804-0.012c-0.903,0.003-0.903-0.007-1.806-0.004
				c-0.902,0.003-0.901,0.04-1.803,0.043c-0.904,0.003-0.904,0.027-1.807,0.03c-0.905,0.003-0.911-0.111-1.813-0.036
				C10.743,3.602,10.72,3.781,9.853,3.52z"/>
		</g>
	</g>
</g>
<g>
	<path class="st1" d="M2.92,21.965c-0.09,0.286-0.484,0.257-0.574-0.029c-0.286-0.907-0.033-0.933-0.033-1.884
		c0-0.95,0.025-0.95,0.025-1.899c0-0.952-0.008-0.952-0.008-1.904c0-0.953-0.021-0.953-0.021-1.907c0-0.953-0.366-1.015-0.08-1.925
		c0.09-0.286,0.632-0.288,0.722-0.002c0.286,0.907-0.03,0.971-0.03,1.922c0,0.95-0.021,0.95-0.021,1.899
		c0,0.952,0.048,0.952,0.048,1.904c0,0.953-0.186,0.961-0.082,1.909C2.974,21.016,3.206,21.055,2.92,21.965z"/>
</g>
<g>
	<path class="st1" d="M115.233,22.51c-0.076,0.264-0.378,0.27-0.454,0.006c-0.264-0.913-0.006-0.94-0.006-1.891
		c0-0.95,0.026-0.95,0.026-1.899c0-0.952-0.093-0.952-0.093-1.904c0-0.953,0.095-0.953,0.095-1.907s-0.3-0.984-0.036-1.899
		c0.076-0.264,0.4-0.257,0.476,0.007c0.264,0.913,0.006,0.937,0.006,1.888c0,0.95,0.021,0.95,0.021,1.899
		c0,0.952,0.083,0.952,0.083,1.904c0,0.953-0.061,0.951,0.007,1.902C115.427,21.567,115.497,21.594,115.233,22.51z"/>
</g>
<g>
	<path class="st1" d="M20.872,18.545h-0.773v-0.762h-0.762V17.01h0.762h0.773v-0.762v-0.773h0.762v0.773v0.762h0.773v0.773h-0.773
		h-0.762V18.545z M20.099,19.319h-0.762v-0.773h0.762V19.319z M20.099,20.842V20.08h0.773v0.762H20.099z M23.169,21.604h-0.762
		h-0.773h-0.762v-0.762h0.762h0.773V20.08h-0.773h-0.762v-0.762h0.762h0.773v-0.773h0.762v0.773v0.762h0.773v0.762h-0.773V21.604z
		 M23.169,17.01v-0.762h0.773v0.762H23.169z M24.704,17.783h-0.762V17.01h0.762V17.783z"/>
	<path class="st1" d="M26.239,21.604h-0.762v-0.762V20.08v-0.762v-0.773v-0.762V17.01v-0.762h0.762v0.762v0.773v0.762v0.773v0.762
		v0.762V21.604z M27.013,20.842V20.08h0.762v0.762H27.013z M30.845,17.01h-0.762H29.31h-0.762h-0.773v-0.762h0.773h0.762h0.773
		h0.762V17.01z M30.845,21.604h-0.762H29.31h-0.762h-0.773v-0.762h0.773h0.762h0.773h0.762V21.604z"/>
	<path class="st1" d="M31.618,17.783V17.01h0.762v-0.762v-0.773h0.773v0.773v0.762h0.762h0.773v-0.762v-0.773h0.762v0.773v0.762
		h0.773v0.773H35.45h-0.762h-0.773h-0.762v0.762v0.773v0.762v0.762H32.38V20.08v-0.762v-0.773v-0.762H31.618z M33.915,21.604h-0.762
		v-0.762h0.762V21.604z M33.915,19.319v-0.773h0.773v0.773H33.915z M36.224,20.08H35.45h-0.762v-0.762h0.762h0.773V20.08z
		 M36.985,19.319h-0.762v-0.773v-0.762h0.762v0.762V19.319z"/>
	<path class="st1" d="M40.056,19.319h-0.762h-0.773v-0.773v-0.762V17.01h0.773v0.773v0.762h0.762V19.319z M39.294,16.248v-0.773
		h0.762h0.773v0.773h-0.773H39.294z M40.056,17.783h0.773h0.762h0.773v0.762h-0.773h-0.762h-0.773V17.783z M41.591,21.604h-0.762
		h-0.773v-0.762h0.773h0.762V21.604z M41.591,17.01h-0.762v-0.762h0.762V17.01z M42.364,20.842h-0.773V20.08h0.773V20.842z
		 M43.126,20.08h-0.762v-0.762v-0.773h0.762v0.773V20.08z"/>
	<path class="st1" d="M43.899,20.842V20.08h0.762v0.762H43.899z M44.661,17.01v-0.762h0.773h0.762h0.773h0.762v0.762H46.97h-0.773
		h-0.762H44.661z M45.435,20.08h-0.773v-0.762h0.773V20.08z M48.505,21.604h-0.773H46.97h-0.773h-0.762h-0.773v-0.762h0.773h0.762
		h0.773h0.762h0.773V21.604z M48.505,17.783h-0.773V17.01h0.773V17.783z"/>
	<path class="st1" d="M50.04,20.842V20.08h0.762v0.762H50.04z M50.802,17.01v-0.762h0.773h0.762h0.773h0.762v0.762H53.11h-0.773
		h-0.762H50.802z M51.575,20.08h-0.773v-0.762h0.773V20.08z M54.646,21.604h-0.773H53.11h-0.773h-0.762h-0.773v-0.762h0.773h0.762
		h0.773h0.762h0.773V21.604z M54.646,17.783h-0.773V17.01h0.773V17.783z"/>
	<path class="st1" d="M58.478,18.545h-0.762v-0.762h-0.773h-0.762V17.01h0.762h0.773v-0.762v-0.773h0.762v0.773v0.762h0.773v0.773
		h-0.773V18.545z M56.942,21.604h-0.762v-0.762V20.08h0.762v0.762V21.604z M56.942,18.545h0.773v0.773v0.762h-0.773v-0.762V18.545z
		 M57.716,20.842V20.08h0.762v0.762H57.716z M59.251,21.604h-0.773v-0.762h0.773V21.604z M59.251,14.713V13.94h0.762v0.773H59.251z
		 M60.013,20.842h-0.762V20.08v-0.762v-0.773v-0.762h0.762v0.762v0.773v0.762V20.842z M60.786,15.475h-0.773v-0.762h0.773V15.475z
		 M60.013,17.01v-0.762h0.773v0.762H60.013z M60.786,13.94v-0.773h0.762v0.773H60.786z M61.548,18.545h-0.762v-0.762V17.01h0.762
		v0.773V18.545z M62.321,14.713h-0.773V13.94h0.773V14.713z"/>
	<path class="st1" d="M67.689,20.842h-0.762V20.08v-0.762h-0.773v-0.773h-0.762h-0.773v0.773v0.762h-0.762v-0.762h-0.773v-0.773
		h0.773v-0.762V17.01h-0.773h-0.762v-0.762h0.762h0.773v-0.773h0.762v0.773h0.773h0.762h0.773h0.762v0.762h-0.762h-0.773h-0.762
		h-0.773v0.773h0.773h0.762h0.773v0.762h0.762v0.773v0.762V20.842z M62.321,20.842V20.08v-0.762h0.762v0.762v0.762H62.321z
		 M64.618,21.604h-0.762h-0.773v-0.762h0.773h0.762V21.604z M65.392,20.842h-0.773V20.08h0.773V20.842z M66.153,20.08h-0.762v-0.762
		h0.762V20.08z M66.927,21.604h-0.773v-0.762h0.773V21.604z"/>
	<path class="st1" d="M68.462,17.783V17.01h0.762v-0.762v-0.773h0.773v0.773v0.762h0.762h0.773v-0.762v-0.773h0.762v0.773v0.762
		h0.773v0.773h-0.773h-0.762h-0.773h-0.762v0.762v0.773v0.762v0.762h-0.773V20.08v-0.762v-0.773v-0.762H68.462z M70.759,21.604
		h-0.762v-0.762h0.762V21.604z M70.759,19.319v-0.773h0.773v0.773H70.759z M73.067,20.08h-0.773h-0.762v-0.762h0.762h0.773V20.08z
		 M73.829,19.319h-0.762v-0.773v-0.762h0.762v0.762V19.319z"/>
	<path class="st1" d="M75.364,20.842V20.08v-0.762v-0.773v-0.762V17.01v-0.762v-0.773h0.773v0.773v0.762v0.773v0.762v0.773v0.762
		v0.762H75.364z M78.435,21.604h-0.762h-0.773h-0.762v-0.762h0.762h0.773h0.762V21.604z M79.208,20.842h-0.773V20.08v-0.762h0.773
		v0.762V20.842z"/>
	<path class="st1" d="M80.743,20.842V20.08v-0.762v-0.773v-0.762V17.01v-0.762h0.762v0.762v0.773v0.762v0.773v0.762v0.762H80.743z
		 M83.04,21.604h-0.762h-0.773v-0.762h0.773h0.762V21.604z M83.814,20.842H83.04V20.08h0.773V20.842z M84.575,17.01v-0.762h0.773
		v0.762H84.575z M86.11,20.08h-0.762v-0.762v-0.773v-0.762V17.01h0.762v0.773v0.762v0.773V20.08z"/>
	<path class="st1" d="M87.646,20.08v-0.762h0.773v0.762H87.646z M88.419,20.842V20.08h0.762v0.762H88.419z M89.954,21.604h-0.773
		v-0.762h0.773V21.604z"/>
	<path class="st1" d="M93.786,20.08v-0.762h0.773v0.762H93.786z M94.56,20.842V20.08h0.762v0.762H94.56z M96.095,21.604h-0.773
		v-0.762h0.773V21.604z"/>
	<path class="st1" d="M99.927,20.08v-0.762h0.773v0.762H99.927z M100.7,20.842V20.08h0.762v0.762H100.7z M102.235,21.604h-0.773
		v-0.762h0.773V21.604z"/>
</g>
</svg>
